<svg id="Шар_1" data-name="Шар 1" xmlns="http://www.w3.org/2000/svg" viewBox="0 0 658.92 755.91"><defs><style>.cls-1{fill:#7c1f27;}.cls-2{fill:#99b5df;}.cls-3{fill:#e5958d;}.cls-4{fill:#f7b8ac;}.cls-5{fill:#cfeafb;}.cls-6{fill:#fff;}</style></defs><title>Без назви-1</title><path class="cls-1" d="M1271.55,275.11c-.84,7.44-1.57,14.89-3.61,22.13-.48,1.72-.3,2.67,1.82,3.07,16,3,24.2,20.36,19.26,37.4a65,65,0,0,1-25.56,35.84c-1.69,1.19-3,2.13-3.27,4.5-5,46-31,77.22-69.81,99.53l-3.13,1.81a188,188,0,0,1,28,19.06c19.08,15.95,35.41,34.09,46.55,56.64,8.31,16.83,6.4,32.43-4.24,47.39A95.73,95.73,0,0,1,1237,623.39c-2.81,2.12-3.3,3.64-2,7.22,10,27.73,9.47,55.13-4.32,81.57-5.74,11-14.15,19.69-25.7,24.91a16.39,16.39,0,0,0-6.43,5.43c-14,19.32-34.11,29-56.19,35.67-15.31,4.6-31,7.37-46.64,10.55-9,1.83-16.76,7.26-25.93,8.63-2,.3-4.34-.22-6,1.53h-21c-2.88-2.19-6.53-1.86-9.74-3-14.26-5-26-12.78-30.51-28.26-2.28-7.77-2.23-7.61-10.78-8.78-19.88-2.72-38.61-9.18-55.19-20.37-9.94-6.71-20.79-9.27-32-11.45-19.62-3.81-37.5,2.27-55,10.11-2.49,1.12-3.94,3.51-5.57,5.62-10.29,13.34-26.58,19.28-41.54,15.2a31.44,31.44,0,0,1-14.52-8.39,106.76,106.76,0,0,1-9.19-10.53c-6.33-8.55-14.35-12.76-25.25-12.19-8.89.46-17.13-2-23.51-8.89-3.3-3.57-5.49-7.52-5.24-12.5.1-2.21-.33-3.4-2.84-4.2-6.56-2.09-8.65-5.15-8.27-11.81.19-3.4-2.49-6.65-1.08-9.73,3.31-7.25,1.65-16.12,9.34-22.27,3.72-3,5.43-8.63,11.06-10.42,1.78-.57,1.14-3.57,1.68-5.44,3-10.32,11.08-16.76,21.47-16.86,9-.09,15.09,4.26,18.6,12.44,2.39,5.57,5,10.93,11.36,13.13,2.25.78,3.5.82,4.48-1.83,11.16-30.2,33-49.09,63.82-59.39A79.5,79.5,0,0,1,837.64,574c-.94-1.14-2-.72-3.15-.48-9.74,1.94-18.87,0-27.35-4.89a9.07,9.07,0,0,0-7.48-1.06c-10.76,2.76-19.17-2.25-26.41-9.25-5.17-5-4.51-12.38,1-21-4.59-2-8.91-4.49-10.27-9.71a16.3,16.3,0,0,1,1.71-12.08c3.64-6.79,9.69-9.81,17-10.66,7.74-.9,15.25.37,22.63,2.71l1.27.07-.35-1.17c-1.88-3.74-5.42-5.21-9-6.58-3.1-1.18-6.35-2-9.35-3.41-11.33-5.24-12.75-18.17-2.84-25.81,7.66-5.9,16.62-6.56,25.7-5.35,15,2,23,6.44,37.09,19.73,1.54-.5,1.27-2.12,1.7-3.17,4.16-10.1,11.51-15,20.65-13.72,10.84,1.58,17.49,8.56,18.58,19.63.41,4.14.8,8.29.9,12.44.05,2.18.85,2.87,2.89,3a56.2,56.2,0,0,0,30.7-6.89,13.86,13.86,0,0,0,3.4-2.91c5.34-5.84,4.8-8.38-2.22-11.64-26.83-12.44-50.81-28.66-67.66-53.54-17.6-26-25.07-54.2-15.88-85.23,4-13.35,11.53-25,18.77-36.74,1.61-2.6,2-4.27-.24-7.21C851,288,848.63,275.23,852,261.74c3.67-14.55,14.1-19.22,28.42-13,2.95-13.45,5.59-27,10.85-39.73,27-65.48,75.9-104.77,144.53-120,26.66-5.91,53.56-5.6,80.34-.15,3.52.71,5.61-.33,7.48-3.15,5.54-8.39,5-16.94.89-25.6A37.85,37.85,0,0,0,1116,48.57a6.13,6.13,0,0,1-2.22-5.58h4c2.86,2.67,5.92,5.16,8.53,8,10.22,11.31,13.86,24,7.66,38.63-.39.92-1.87,2.2-.53,3s2.89,1.49,4.71.6a18.62,18.62,0,0,0,8.25-8.4,44.86,44.86,0,0,0,4.64-16.2c.19-1.75.14-4.08,2.58-4.22s2.58,2.31,2.9,4c1.93,9.94,1.83,19.54-4.89,28-2.76,3.49,1.44,2.93,2.51,3.38a215.33,215.33,0,0,1,61.15,38c38.64,34.43,56.68,77.88,56.53,129.28q0,3,0,6C1271.55,273.77,1270.05,274.27,1271.55,275.11Zm-240.83,453.7c-.75-.06-1.1.29-1.06,1l0,0a75.1,75.1,0,0,0-16.6,16.26c-6,8-6.16,16.57-1.51,25.28,4.4,8.26,11.73,12.89,20.18,16.08a64.12,64.12,0,0,0,43.94.27c6.25-1.24,11.84-4.23,17.66-6.64,1.23-.51,3.22-2.23,3.86-.29,1.06,3.19,2.75,1.78,4.54,1.44a312.34,312.34,0,0,0,32.3-8.48c18.28-5.57,35.49-13.25,50.11-26,19.09-16.64,23-47.6,8.39-67.5a74.45,74.45,0,0,0-78.51-27.69,39.1,39.1,0,0,0-12.42,5.25c4.43,2.93,7.59,6.27,9,10.93,2.87,9.51-1.36,18.87-10.8,23.61-2.25,1.13-3.81,2.54-2.6,5,1.33,2.69,3.59,1.15,5.12.15,2.91-1.91,5.48-4.33,8.34-6.33,8.68-6.08,19.31-2.72,21.06,7.35,1.07,6.17,1,12.38,4.6,17.93,1.46,2.24-.76,5.1.26,7.79,1.74,4.65.64,9.74,2,14.54.62,2.25-.69,4.63-2.69,6.11a7.18,7.18,0,0,0-2.49,3.48c-3.11,7.8-9,13.06-16.29,16.83-1.43.74-3,1.71-4.34-.25,7.47-3.5,12.29-9.7,14.82-17.07.88-2.57,1.79-2.77,3.54-3.45,2.32-.91,4.15-2.53,3.34-5.28-.9-3-2.94-.88-4.4-.51-2.58.67-4.89-.1-7.24-.9a1.31,1.31,0,0,0-.1-.8c4.5-.28,9.11-.39,10.69-5.91a3,3,0,0,0-.27-2.86c-.94-1.14-1.79-.14-2.59.27a14.15,14.15,0,0,1-7.76,1.35c-1.63-1.34-4.33-1.5-4.81-4.44l2.83.4a7.56,7.56,0,0,0,9.14-1.61,7,7,0,0,0,1.77-7.38c-.85-2.61-2-5.3-5.54-2.34a13.11,13.11,0,0,1-7.4,2.63c-8-1.74-10.85-4.93-10.83-12,2.33-.1,2.18,2.16,3.08,3.36,2.65,3.56,6.08,4.53,10.1,3.05,5.2-1.9,7.74-8.39,5.55-13.68-2-4.89-7.1-6.77-12.48-4.43-4,1.73-7.18,4.71-10.54,7.4-6,1.72-8.48.32-9.91-6.09-.3-1.34-1.69-1.49-1.85-2.66,10.86-.78,17.52-9.25,15.06-19.16.13-2.67-1.11-4.82-2.72-6.77-5.14-6.22-14.65-6.89-22.61-1.66s-10.89,13.63-7.4,20.92c.68,1.41,2.37,2.55,1.33,4.47a15.42,15.42,0,0,1-7.43-8.94c-.41-6.83-1-7.26-7.08-3.6-11.85,7.13-16.54,18.26-17,31.59-.31,1.46-.58,2.92.61,4.16l0,0c-.88,5.5,2,10.45,2.84,16.62-5.24-3.14-5.76-8.25-8.23-12.65-1.56,4.42-5.74,6.62-7.17,10.78-.89-.18-1.34.2-1.36,1.1ZM724.82,687c2.2,1,4.16.22,6.09-.82,1.31.16,3.16-1.24,3.75,1,.4,1.47-.93,2.46-2,3.1a44.21,44.21,0,0,1-4.92,2.17c-1.91-.31-3.84-.58-5.74-1-.77-.16-1.69-.77-2.06.23a3,3,0,0,0,.39,2.3c1.87,2.86,4.66,2.42,7.45,1.85,4.76-.26,4.91,2.69,4.28,6.17a11.5,11.5,0,0,0,2.32,9.87,22.62,22.62,0,0,0,19.37,9.35c3.43,1.27,6.88.22,10.33.18a8.69,8.69,0,0,1,4.15,1c8.87,4.38,14.53,12.07,21.1,18.84,4.09,4.23,8.44,8,14.25,9.7,12.68,3.72,26.7-1.38,35.22-12.85,4.94-6.65,7.66-14.3,10.11-22.1.48-1.54.26-4.49,2.67-3.93,2.16.51,1.14,3.23.91,4.85-.62,4.19-1.63,8.32-2.55,12.78,1.81-.78,3.3-1.45,4.82-2.08,16.82-7,34.09-11.13,52.48-8.78,1.52.19,3.8,1.27,4.56-.35.94-2-1.56-3-2.73-4.21-18-19-31.83-40.39-37.74-66.37-3.74-16.41-2-32.74,0-49.1.67-5.56.77-5.53-4.93-4.51s-11.36,2.23-16.63,4.78c-6,.44-10.84,3.85-15.76,6.77-18.29,10.9-30.19,26.92-37.52,47.15,3.51.18,6.43.17,9.22-1.12.78.43,3.1.5.7,1.85a33.3,33.3,0,0,1-6.43,2.6c-15.33,4.79-26.55.61-30.46-14.23a18.46,18.46,0,0,0-2.08-4.49c-2-3.32-4.75-5.41-8.75-5.56-9.62-1.18-17.59,5.42-18.8,15.59-1.46,12.16,6,20.9,15.78,21.15,1.28.33,2.58.61,3.84,1s1.74,1.91.7,2.05c-4.1.53-3.69,5.15-7.16,7.33,1.08-4.3-1-5.42-4.1-5.85a9.15,9.15,0,0,1-3.62-1.59c-3.1-2.08-4.28-.58-4.44,2.39-.13,2.29.1,4.6-2.07,6.44-1.26-1.27-.17-3.36-2-4.65-1.07,3.06-3.42,4.58-5.9,6a19.75,19.75,0,0,1-8-.93l-4.42-3.87C718.63,682.57,719.65,686.12,724.82,687Zm10.88-19.43a6.35,6.35,0,0,0,4.82-.09c-2.43-4.29-4.29-8.69-4.71-13.55-.17-1.92-.91-1.86-2.1-.76a7.7,7.7,0,0,0-4.23,8.48C730,665.15,732.3,667,735.7,667.54ZM785,531.23h.11c3.79-.1,7.59-.39,11.38-.25s7.33,1,10.08,5.58c-3.16-.51-5.37-1.07-7.6-1.18-8.59-.41-17.19-.65-21.4,9.2-2.31,3.07-2.35,6.17.18,9,2.83,3.22,6.28,3.11,9.88,1.35,5.6-.8,9.85-4.51,14.74-6.85,2.33-1.11,4.46-3,8.26-2.71-6.88,6.35-14.37,10.09-22.28,14.32,8.59,5.08,16.36,1.41,24.5-.11l-3.8,2.6c3.11,2.91,6.08,4.52,9.69,4.83,11.46,3.22,21.69-.43,31.76-5.78a12,12,0,0,1-5.53,5.36c-2.75,1.51-2.73,2.66-.46,4.65,6.53,5.71,13.27,11.13,20.84,15.39,2.51,1.4,6,4.25,7.94,2.56,2.8-2.4,3.1-6.82,2.2-10.75-.37-1.61-1-3.17-1.44-4.77a4.33,4.33,0,0,1,2.76-5.66,53.35,53.35,0,0,1,7.13-2.18,4.56,4.56,0,0,0,3.75-3.5c5.18-20,15.07-37.53,28.18-53.35a5.7,5.7,0,0,0,.65-.59c-.4-.56-.8-.31-1.18.07a70.4,70.4,0,0,1-25.13,2.4c-2.72-.27-3.22,1-3.72,3.26a45.79,45.79,0,0,1-9,19.22c-2,2.47-3.86,5.19-8.13,7,1.76-2.74,2.91-4.45,4-6.21,9.29-15.25,12.89-31.47,8.55-49.12-1-4-3.1-6.86-7.11-8.15a6.59,6.59,0,0,0-4-1.57c-8-.84-12.8,2.13-15.89,10.22-3.49,9.14-4,18.65-3,28.3L850.48,515c-1.05-1.66-.22-3.93-1.86-5.78-6.52,7.07-10.18,15-9.62,24.63-.39.14-.5,1.78-1.08.44a30.62,30.62,0,0,1-1.23-5.27c0-10.08,2.73-18.81,10.84-25.71,2.51-2.13,2.32-6.51-.37-9.42s-5.16-5.66-8.43-7.73a54.87,54.87,0,0,0-25.49-13.73c-9-2-17.73-1.72-25.49,4.17-5,4.42-5.1,7.49-.38,11.76,2.46,2.22,5.16,4.21,8.48,4.84a27.71,27.71,0,0,1,15.93,8.71c.77-.53,1.65-1.62,2.3-1.5,1.28.23.72,1.65.64,2.5a23.51,23.51,0,0,1-4.45,12c-.76,1-1.46,2.51-3.06,2.06s-.79-1.81-.74-2.92c.07-1.64-1.44-1.61-2.48-1.82a62,62,0,0,0-6.89-1.06c-7.52-.62-15-.85-21.4,4.21-3.61,2.55-6.11,5.84-4.85,10.39,1.17,4.25,5.25,5,9,5.86a18.15,18.15,0,0,0,3.9,0C784.23,531.79,784.7,531.81,785,531.23ZM897.81,568.8c-4.4.72-8.82,1.39-13.22,2.18-2.72.48-5.71,1.24-4.49,4.94.93,2.83,2,6.14,6.59,4.11,2.83-1.25,6.07-1.59,9.12-2.34l8.9-1.73c8.27-.85,16.55-1.68,24.81-2.54a418.06,418.06,0,0,1,82.27-.89c14.75,1.37,29.3,4,43.9,6.25l7,1.88c-2.91.81-5.26-.58-7.75-.49-22.31-3.94-44.84-5.45-67.45-5.67a421.84,421.84,0,0,0-84.72,7.6,34.33,34.33,0,0,0-9,1.89c-8.65.07-13.86,3.91-15.37,12.87-.93,5.48-2.73,10.81-3,16.43a86.07,86.07,0,0,0,7.78,54.33c24.16,49.36,64.09,77.09,118.25,84.88,2.11.3,2.81-.17,3.5-2.16,1.94-5.62,5.6-10.17,9.89-14.19,4.73-4.45,9.64-8.7,14.34-13.18a30.08,30.08,0,0,0,9.71-20.48c1.19-14.75,8.62-26.24,23-31.59,5.75-2.14,11.38-3.74,15.28-8.91,1.9-2.52,5.86-2.58,7.52-5.48,8.72-15.28,23.3-20.37,39.43-22.79,1.28.46,3-.56,3.93,1.06-15.15,1.88-27,9.66-37,20.85.61.11,1.15.38,1.55.24a8.43,8.43,0,0,0,2.15-1.15c12.6-8.86,26.82-11,41.79-10.24,24.34,1.15,43.23,13,59.26,30.26,9.17,9.86,13.23,21.75,12.16,35.27-.26,3.19-.69,6.36-1,9.55,8.93-16.35,8.83-32.93.81-50.21,10.46,7.22,12.45,34.62,4,52.09,4.88-2.05,7-5.83,9.18-9.31,16-25.82,16.33-53,6.85-81-.86-2.54-1.84-2.46-3.88-1.24-8.2,4.88-16.91,8.65-26.41,10-7.34,1-14.85.81-22,3.21-3.4,1.13-7,.74-10.37-.16-4.1-1.08-8.44-3.48-8.13-7.65.55-7.42-4.07-6.75-8.55-7.2a21.72,21.72,0,0,1-3.89-.82c-5.28-1.62-10.22-3.66-10.44-10.34-.06-1.94-1.58-1.84-2.68-2.39-7.37-3.68-9.83-10.2-6.13-17.37,1.29-2.51,1.45-3.31-1.56-4.32A45.18,45.18,0,0,1,1103.78,580a6.43,6.43,0,0,0-3.32-2c-14.43-3.89-28.91-7.57-43.72-9.81-49.92-9-99.91-8.82-150-1C903.76,567.48,900.69,567.64,897.81,568.8Zm250.86,18.13.07-.11c-8.54,1-14.64,5.85-19.52,12.46-1.91,2.6-2.37,5.73.3,8.17s5.83,5,10.08,4.27c12.57.85,21.05-7.15,30.08-14.09-2.52,7-8.18,11-13.84,15-4.12,1.18-8.07,3-12.44,3.33-1.31.11-3.34-.8-3.77,1.28-.38,1.83,1,3.08,2.49,4,7.39,4.38,15,4.68,22.63.78,7.6-2.52,13-7.16,14.53-16.2,1.55,5.32.12,9.06-2.94,12.2-2.07,2.11-4.42,3.94-6.64,5.9a27.59,27.59,0,0,0-4.84,2.3c-2.46,1.81-4.28,4.41-3.81,7.49.5,3.3,3.57,4,6.41,4.28a18.85,18.85,0,0,0,7.33-.15c11.58-.66,17.85-7.43,20.57-18.48l1.33,2.66c.56,5.21-1.7,9.51-4.87,13.74,20.11-2.73,45.12-17.62,58.29-33.87,11.79-14.56,13.6-29.47,4.4-46.18-17.6-32-43.12-55.49-75.3-72.15-1.16-.6-2.35-1.47-3.74-.81-6,2.82-12.59,3.95-18.08,8.12-17.26,13.09-37.7,16.12-58.45,18,13.91-4.31,28.4-6.95,41.17-14.54-5,.45-9.88,1.38-14.8,2.07-5.1.73-10.25,1.15-15.36,1.83a60.3,60.3,0,0,1-15.94.26c32-2.65,61-10.53,88-25.11,37.16-20,61-49.63,68.13-91.87.69-4.07-.33-4.54-4-4.77-9.08-.56-16.16-7.13-16.45-14.58,0-1.05-.61-2.52,1-2.92,1.21-.3,1.7.74,2.06,1.71,3.83,10.3,13.81,10,21.23,5.76,13.74-7.8,22.75-19.56,26.32-34.82,4-17-7.68-29.31-23.42-25.53-3.05.73-5.92,2.19-8.87,3.3-1.51.57-2.83,1.9-4.93,1.08a39.05,39.05,0,0,1,11.08-6.34c2.34-.81,3.27-2.08,3.7-4.59,3.41-19.77,4.91-39.59,3-59.65-3.11-32.57-15.08-61.16-37.55-85.14-25.28-27-56.73-43.66-91.48-54.85-3.92-1.26-7.52-2.17-11.14,1-1.85,1.62-4.51,2-7.06,2.15-1.67.06-3.55.38-4.28-1.62-.86-2.34,1-3.15,2.62-4.11.79-.46,2-.52,2.11-1.83-11.27-3.22-39.3-4.89-52.35-3.18-7.38,1-14.9,1-22.07,3.35l-2.91.4-1.53.42c-4.53.6-9,1.28-13.25,3.2-2.24.57-4.54,1-6.72,1.76-68.25,24-109.4,71.93-124.3,142.32-5.73,27.05-13.06,53.2-28.84,76.34a89.87,89.87,0,0,0-6.21,11.37c-4.7,9.6-8.37,19.55-9.19,30.34-1.63,21.59,4.65,41,16.16,59,.79,1.25,1.5,2.55,2.37,3.74,15.9,21.55,36.86,36.71,60.74,48.22s49.23,19.07,74.26,27.48c1.54.51,4.56.38,3.94,2.75s-3.14.44-4.81.52a4.47,4.47,0,0,1-1-.25c-19.41-4.57-38.64-9.79-57.3-16.9-1.23-.47-3.09-1.88-3.53.65-1.44,8.14-7,13.74-11.83,19.81l-1,.94,0-.06c-15.65,15.59-25.85,34.27-32.46,56.1l9.17-2.31a6.5,6.5,0,0,0,4.26-.72c11.23-1.17,22.43-2.7,33.69-3.46a513.11,513.11,0,0,1,84.71,1.07c11.56,1.14,23.06,2.86,34.58,4.32,11.75,2.79,23.53,5.43,35.21,8.46,3.69.95,5.15,1.2,5.1-3.59-.16-12.95,9.3-19.65,21.74-15.83,2.67.82,5.19,2.1,7.79,3.17.23.19.59.6.67.55.6-.35.33-.78,0-1.18-.4-1.62-.92-3.21-1.19-4.85-1-6.18-.62-12,4.56-16.48,5.44-4.67,11.63-5.53,18.23-3.09a33.23,33.23,0,0,1,14.27,10.6,11.31,11.31,0,0,0,5.05,3.79c22,8,34.28,24.37,39.29,46.65,2,8.92,1.53,14.76-.38,18.31-2.36-23.95-12.53-43.43-33.15-56.83l-2.83-1.89-1.07-.52-.13.79c-.16,2.62-1,1.77-2.05.44a66.92,66.92,0,0,0-10.8-11.69c-4.2-3.35-8.64-6.27-14.42-5.65-1.39,0-2.87-.51-4,.85l0-.1c-7.56,2.13-10,6.31-8.12,13.72,1.68,6.6,5.68,11.94,9.23,17.55,1,1.52,3.4,2.82,1.85,5.11s-3-1.61-4.76-.32c.23,4.89-1.84,9.66-1,14.93l4.81-2a19.07,19.07,0,0,1,3.36-.68c5.59-.15,11.44-1.88,16.3,2.58l-10.73.39C1150.58,586.09,1149.47,585.92,1148.67,586.93Zm-31-31.35c-9.79.06-14.69,5.54-13.81,13.31.62,5.51,3.77,9.48,8.07,12.64,5,3.68,10.85,5.74,16.52,8.08,3.17,1.3,4.18-.48,4.33-3.37a59.82,59.82,0,0,1,3-17.11,5.29,5.29,0,0,0-2.31-6.5C1128,559.15,1122.47,555.63,1117.63,555.58ZM877.49,270.94c.82-3.14,1.59-5.85,2.23-8.6,1.14-4.95-.85-8.31-5.68-9.76-4.32-1.29-9.1.91-11.76,5.41-5,8.37-3.82,27.54,2,35.41,2.05,2.75,3.78,3.88,5.38-.3.9-2.32,2.14-4.52,2.87-6.89.4-1.28,2.11-2.91.57-4-1.89-1.37-2.89,1-4.19,2.25-1.81-3.07-.89-5.62,1.58-6.55,4-1.52,2.08-3.39,1-5.39-1.62-2.86-4.09-4.15-7.85-3.35C867.56,264.86,868.8,265.06,877.49,270.94ZM734.57,673.29c-5.55-1.32-8.41-5-10.29-9.72-3.56,3.52-3.78,7.88-.81,11.07S730.13,677.64,734.57,673.29Zm178.87,46.47.75-.4c-.24-.17-.47-.44-.73-.47s-.46.22-.69.34Z" transform="translate(-697.8 -42.99)"/><path class="cls-2" d="M697.8,395c2.42-7.88,4.55-15.95,10.26-22.24,9.52-10.48,20.76-18.34,34.75-21.74l0,0c-16.88,12.18-27.71,29.09-36.87,47.29-1.76,3.51-3.89,5.77-8.11,3.71Z" transform="translate(-697.8 -42.99)"/><path class="cls-2" d="M1356.72,415.94c-4.75,3.06-5.61,2.92-7.94-1.87-7-14.43-15.4-28-26.49-39.66-3.26-3.44-7-6.44-10.22-10.06,6.79,1.37,12.59,4.82,18,8.71,12.83,9.18,22.15,21,25.78,36.71.1.43.56.78.85,1.17Z" transform="translate(-697.8 -42.99)"/><path class="cls-2" d="M828.32,224.23c-6.73-1.53-12.85-4.4-19.32-6.3-12.85-3.76-26.15-4.38-39.32-6-2.95-.37-5.9-.9-8.82-1.51a3.15,3.15,0,0,1-2.76-2.55,3.38,3.38,0,0,1,2.2-3.58,29.19,29.19,0,0,1,10.13-2.37c18.38-1.44,34.26,5.07,49,15.3C822.49,219.38,825.35,221.88,828.32,224.23Z" transform="translate(-697.8 -42.99)"/><path class="cls-2" d="M787.81,260c-10,1.69-19,3.89-27.43,7.92-6.14,2.93-12.35,5.74-18.5,8.66-2,1-4.19,2.07-5.68-.45-1.32-2.23.09-4.05,1.73-5.68,10.92-10.88,24.31-14.47,39.24-13C780.4,257.77,783.87,257.55,787.81,260Z" transform="translate(-697.8 -42.99)"/><path class="cls-2" d="M742.81,351c.33-.27.66-.53,1-.78a3.86,3.86,0,0,1,.3.35l-1.34.4Z" transform="translate(-697.8 -42.99)"/><path class="cls-2" d="M1271.55,275.11c-1.5-.84,0-1.34.23-2,10-1.72,19.88-3.79,30.08-3.09,17.91,1.23,34.13,6.59,47.11,19.67,2.29,2.31,5.59,4.59,2.91,8.38s-5.69,1-8.39-.27c-15.22-7.43-30.43-14.88-47-19C1288.33,276.76,1280.1,274.8,1271.55,275.11Z" transform="translate(-697.8 -42.99)"/><path class="cls-2" d="M1325,442.94a57.37,57.37,0,0,1,15.46,19.51c7.4,14.93,8.16,30.51,4.35,46.51-.57,2.41-1.87,4.07-4.43,3.76s-3.57-2.13-3.59-4.61A182,182,0,0,0,1324.88,445,6.87,6.87,0,0,1,1325,442.94Z" transform="translate(-697.8 -42.99)"/><polygon class="cls-2" points="612.51 320.28 612.61 320.54 612.33 320.49 612.51 320.28"/><path class="cls-3" d="M1039.69,95.82c7.17-2.37,14.69-2.38,22.07-3.35,13-1.71,41.08,0,52.35,3.18C1114,97,1112.79,97,1112,97.48c-1.61,1-3.48,1.77-2.62,4.11.73,2,2.61,1.68,4.28,1.62,2.55-.1,5.21-.53,7.06-2.15,3.62-3.17,7.22-2.26,11.14-1,34.75,11.19,66.2,27.88,91.48,54.85,22.47,24,34.44,52.57,37.55,85.14,1.92,20.06.42,39.88-3,59.65-.43,2.51-1.36,3.78-3.7,4.59a39.05,39.05,0,0,0-11.08,6.34c2.1.82,3.42-.51,4.93-1.08,3-1.11,5.82-2.57,8.87-3.3,15.74-3.78,27.4,8.56,23.42,25.53-3.57,15.26-12.58,27-26.32,34.82-7.42,4.21-17.4,4.54-21.23-5.76-.36-1-.85-2-2.06-1.71-1.61.4-1,1.87-1,2.92.29,7.45,7.37,14,16.45,14.58,3.68.23,4.7.7,4,4.77-7.14,42.24-31,71.89-68.13,91.87-27.1,14.58-56.06,22.46-88,25.11a60.3,60.3,0,0,0,15.94-.26c5.11-.68,10.26-1.1,15.36-1.83,4.92-.69,9.8-1.62,14.8-2.07-12.77,7.59-27.26,10.23-41.17,14.54,20.75-1.85,41.19-4.88,58.45-18,5.49-4.17,12.11-5.3,18.08-8.12,1.39-.66,2.58.21,3.74.81,32.18,16.66,57.7,40.15,75.3,72.15,9.2,16.71,7.39,31.62-4.4,46.18-13.17,16.25-38.18,31.14-58.29,33.87,3.17-4.23,5.43-8.53,4.87-13.74,2.08-.93,2.58-2.91,3.11-4.82a46.23,46.23,0,0,0,.41-23.42c-3.2-13.46-10.31-24.57-19.62-34.52-1.82-1.94-4.91-3.15-4.66-6.6,20.62,13.4,30.79,32.88,33.15,56.83,1.91-3.55,2.39-9.39.38-18.31-5-22.28-17.28-38.66-39.29-46.65a11.31,11.31,0,0,1-5.05-3.79,33.23,33.23,0,0,0-14.27-10.6c-6.6-2.44-12.79-1.58-18.23,3.09-5.18,4.45-5.59,10.3-4.56,16.48.27,1.64.79,3.23,1.19,4.85a5.68,5.68,0,0,0-.67.63c-2.6-1.07-5.12-2.35-7.79-3.17-12.44-3.82-21.9,2.88-21.74,15.83,0,4.79-1.41,4.54-5.1,3.59-11.68-3-23.46-5.67-35.21-8.46,0-9.71-3.94-18.12-9.09-25.91-5.35-8.07-9.65-17.31-19.18-21.66-18.83-8.6-38.51-10.58-58.77-6.83C954.06,511.76,939,520.26,926,532.39A84.83,84.83,0,0,0,905.76,561a6.48,6.48,0,0,1-4.25.72c.62-2.06,1.14-4.16,1.88-6.17,5.38-14.53,12.36-28.33,19.42-42.08.9-1.76,2.19-3.39,2-5.54l0,.06,1-.94c4.84-6.07,10.39-11.67,11.83-19.81.44-2.53,2.3-1.12,3.53-.65,18.66,7.11,37.89,12.33,57.3,16.9a4.47,4.47,0,0,0,1,.25c1.67-.08,4.18,1.88,4.81-.52s-2.4-2.24-3.94-2.75c-25-8.41-50.38-16-74.26-27.48s-44.84-26.67-60.74-48.22c-.87-1.19-1.58-2.49-2.37-3.75,1.93-1.56.19-3.1-.21-4.48a125.79,125.79,0,0,1-4.92-26.37c-1.86-25.23,5.06-48.31,17.06-70.17,2,4.62.91,9.48.86,14.19-.13,11.72,4.91,20.44,14.51,26.71,12.49,8.16,29.47,10,41.85-1.33,6.37-5.8,10.81-12.89,15.82-19.66,3.21-4.35,5.06-9.72,9.71-13-2.22,8.83-2.12,17.69-1.06,26.7,1.28,10.88,3.19,21.72,3.25,32.72.08,12-.43,24,.07,35.92.93,22.22,20.82,37.65,42.45,33,20.11-4.33,33.45-17,41.32-35.61,7.67-18.07,6.31-36.73,2.54-55.4-2.85-14.09-9.42-26.51-17.65-38.13,1.52-.29,2.46.67,3.48,1.55,14.08,12.11,27.89,24.56,42.34,36.22,16.5,13.31,34.78,22.3,57,20.16q18.09-1.74,28.46-16.24c7.19-10.07,9-21.51,7-33.63-2.75-17.09-10.43-31.27-24.23-42-6.45-5-13.87-8.27-20.82-12.37.75-1.9,2.87-3.2,2.56-5.71-2.12-.45-3.93.64-5.85.94s-3.47.19-4.49-1.91c-2-4.21-5.33-7.5-8.45-10.91,11.34,1.44,22.64,2.71,34.13.89,16.31-2.59,31.17-8.39,43.23-19.79,18.87-17.82,21.2-41.6,12.06-65.73a110.41,110.41,0,0,0-33-46c-17.6-14.75-37.78-24-59.81-29.35-18.63-4.55-37.65-5.8-56.81-5.2C1043.42,97,1041.24,97.75,1039.69,95.82Zm227.69,237.43a22.94,22.94,0,0,0-1.6-3.52c-3.65-4.65-8.71-4.47-13.69-3.45-5.49,1.12-11.95,7.35-12.26,11.39-.24,3.17,1.35,3.83,4.05,2.53,1.72-.83,3.5-2.6,5.14,0s0,4.36-1.7,6.07c-.68.67-1.84.91-2,2.49,3.88-.11,6.83-1.68,8.12-5.25,1.62-4.44-.35-7.88-4.36-10.26C1255.8,328.67,1261.12,328.47,1267.38,333.25Z" transform="translate(-697.8 -42.99)"/><path class="cls-4" d="M1039.69,95.82c1.55,1.93,3.73,1.15,5.6,1.09,19.16-.6,38.18.65,56.81,5.2,22,5.37,42.21,14.6,59.81,29.35a110.41,110.41,0,0,1,33,46c9.14,24.13,6.81,47.91-12.06,65.73-12.06,11.4-26.92,17.2-43.23,19.79-11.49,1.82-22.79.55-34.13-.89-9.38-7.34-20-9.71-31.71-8.17a10.74,10.74,0,0,0-7.73-3.08c-1-.47-.74-2.44-2.46-2-5.52-.85-10-5-15.82-4.95l-.4-.24.42.23c2.27,5.63,4.82,11.06,5.44,17.36.73,7.31,1.66,7.57,9.54,7.62,6,.05,11.83,1.24,17.74,1.71,8.93.71,17.5,3.48,26.39,4.24a35.31,35.31,0,0,1,2.08,3.27c2.88,5.76,4.6,6.3,10.21,3.07.85-.49,1.69-1,2.53-1.5,7,4.1,14.37,7.35,20.82,12.37,13.8,10.78,21.48,25,24.23,42,2,12.12.19,23.56-7,33.63Q1149.4,382.3,1131.29,384c-22.19,2.14-40.47-6.85-57-20.16-14.45-11.66-28.26-24.11-42.34-36.22-1-.88-2-1.84-3.48-1.55-6.65-7.13-14.09-13.13-23.27-16.73-20.27-8-39-1.84-47.65,17.54-4.65,3.26-6.5,8.63-9.71,13-5,6.77-9.45,13.86-15.82,19.66-12.38,11.29-29.36,9.49-41.85,1.33-9.6-6.27-14.64-15-14.51-26.71,0-4.71,1.12-9.57-.86-14.19,8.55-15.34,17.36-30.55,23.64-47l17.37-11.52a7.35,7.35,0,0,0,4.87-1.49,201.48,201.48,0,0,1,21.37-6.15c4.58-1,9.56-.29,13.75-3,2,.48,4,1.15,5.08-1.42,1.52-3.59,3.28-7.11,3.47-11.94-4.1,7.56-8.65,5.51-13.39,1.63a8.09,8.09,0,0,0-2.75-1.12c-9.68-3-18.25-.38-26.25,5.16-5.33-.51-8.84,3-12.59,5.83-1.21.92-2.11,2.29-3.38.21,4-12.77,7.73-25.6,11.94-38.3,2.85-8.59,5.79-17.2,10.81-24.88.46,4.19,2.89,1.72,4.15.95,5.82-3.57,11.62-7.1,18.16-9.28a7.92,7.92,0,0,0,3.18-2.34c2.23-2.55,1.37-5.15-1.91-6-2.59-.69-5,.18-7.18,1.4-3.18,1.76-6.22,3.78-9.32,5.69-.89-3.15,1.57-4.94,3.06-7,15.62-21.29,35-38.63,56.73-53.46,8.53-5.82,17.83-10.32,26.37-16.09,4.21-1.91,8.71-2.59,13.24-3.19q.76-.19,1.53-.42Zm68.69,88c-1.4.12-3.65,0-4.44,2.34s.63,4.3,2.37,5.61c6,4.49,12,8.85,18.15,13.17,3,2.15,4.18.74,4.1-2.46C1128.37,194.71,1116.78,183.68,1108.38,183.83Zm-114.71,79c-2.53.11-4.53,0-6.43.78-2.11.88-5.11,1.33-5,4.06.1,2.91,3.22,2.91,5.41,3.3,7.17,1.28,14.48,1.75,21.51,3.85,1.17.35,2.76.79,3.52-.79s-.39-2.83-1.53-3.83C1006,265.69,1000.06,263,993.67,262.83Z" transform="translate(-697.8 -42.99)"/><path class="cls-5" d="M1124.15,633.72c-16.13,2.42-30.71,7.51-39.43,22.79-1.66,2.9-5.62,3-7.52,5.48-3.9,5.17-9.53,6.77-15.28,8.91-14.38,5.35-21.81,16.84-23,31.59a30.08,30.08,0,0,1-9.71,20.48c-4.7,4.48-9.61,8.73-14.34,13.18-4.29,4-8,8.57-9.89,14.19-.69,2-1.39,2.46-3.5,2.16-54.16-7.79-94.09-35.52-118.25-84.88a86.07,86.07,0,0,1-7.78-54.33c.2,5.31-.12,10.69.69,15.91a120.29,120.29,0,0,0,16.15,44.58c3.92,6.42,7.86,12.94,14.47,17.15l1,1,.36,1.31.38-.24-.75-1.07-1-1a13.48,13.48,0,0,0-1-2.78C899,676.94,895,664.73,892.27,652c-3.24-15.4-3-30.87-1.74-46.47.58-7.3,3.09-14.23,3.29-21.53a34.33,34.33,0,0,1,9-1.89,31.36,31.36,0,0,1-.07,3.5c-1.74,14.85,3,27.68,13.41,38,17.84,17.73,39.86,22.88,64.18,19a107.82,107.82,0,0,0,51.39-22.67c12.63-10.21,21.9-22.7,23.26-39.67,2.49-.09,4.84,1.3,7.75.49l-7-1.88,1-10.65c14.81,2.24,29.29,5.92,43.72,9.81a6.43,6.43,0,0,1,3.32,2,45.18,45.18,0,0,0,19.91,12.81c3,1,2.85,1.81,1.56,4.32-3.7,7.17-1.24,13.69,6.13,17.37,1.1.55,2.62.45,2.68,2.39.22,6.68,5.16,8.72,10.44,10.34a21.72,21.72,0,0,0,3.89.82c4.48.45,9.1-.22,8.55,7.2-.31,4.17,4,6.57,8.13,7.65,3.42.9,7,1.29,10.37.16,7.17-2.4,14.68-2.18,22-3.21,9.5-1.32,18.21-5.09,26.41-10,2-1.22,3-1.3,3.88,1.24,9.48,28,9.13,55.21-6.85,81-2.15,3.48-4.3,7.26-9.18,9.31,8.43-17.47,6.44-44.87-4-52.09,8,17.28,8.12,33.86-.81,50.21.36-3.19.79-6.36,1-9.55,1.07-13.52-3-25.41-12.16-35.27-16-17.24-34.92-29.11-59.26-30.26-15-.71-29.19,1.38-41.79,10.24a8.43,8.43,0,0,1-2.15,1.15c-.4.14-.94-.13-1.55-.24,10.07-11.19,21.9-19,37-20.85l12.31-1.14C1134.93,633.05,1129.5,631.92,1124.15,633.72Zm78.11,25.9-.7.85.63.42v-1.25c-.93-.15-1.77-1.44-2.81-.24.26-.76.3-1.46-.52-1.92a1,1,0,0,0-.45,0c.34.62.67,1.25,1,1.86C1200.38,659.42,1201.19,660.9,1202.26,659.62Zm3.49,5.37.12,0-.14-.11c-1.15-.71-.3-3.4-2.74-2.79C1203,664,1205.12,663.75,1205.75,665Z" transform="translate(-697.8 -42.99)"/><path class="cls-3" d="M732,702c.63-3.48.48-6.43-4.28-6.17,0-1.14,0-2.27,0-3.41a44.21,44.21,0,0,0,4.92-2.17c1.09-.64,2.42-1.63,2-3.1-.59-2.2-2.44-.8-3.75-1,0-1.42-.07-2.85-.11-4.27,2.48-1.38,4.83-2.9,5.9-6,1.88,1.29.79,3.38,2,4.65,2.17-1.84,1.94-4.15,2.07-6.44.16-3,1.34-4.47,4.44-2.39a9.15,9.15,0,0,0,3.62,1.59c3.11.43,5.18,1.55,4.1,5.85,3.47-2.18,3.06-6.8,7.16-7.33,1-.14.46-1.68-.7-2.05s-2.56-.69-3.84-1a5.67,5.67,0,0,1-.11-.84c7-2,11.28-9.15,10.28-17-.79-6.19-7.83-12.66-14.22-13.07,1.28-3.25,4.7-3.92,7.07-5.85,4,.15,6.8,2.24,8.75,5.56a18.46,18.46,0,0,1,2.08,4.49c3.91,14.84,15.13,19,30.46,14.23a33.3,33.3,0,0,0,6.43-2.6c2.4-1.35.08-1.42-.7-1.85,4.56-5.58,8-11.85,11.13-18.26a76.07,76.07,0,0,1,19.42-24.48c4.28-3.62,9-6.72,13.51-10.06,5.27-2.55,10.91-3.76,16.63-4.78s5.6-1,4.93,4.51c-2,16.36-3.69,32.69,0,49.1,5.91,26,19.74,47.32,37.74,66.37,1.17,1.24,3.67,2.24,2.73,4.21-.76,1.62-3,.54-4.56.35-18.39-2.35-35.66,1.82-52.48,8.78-1.52.63-3,1.3-4.82,2.08.92-4.46,1.93-8.59,2.55-12.78.23-1.62,1.25-4.34-.91-4.85-2.41-.56-2.19,2.39-2.67,3.93-2.45,7.8-5.17,15.45-10.11,22.1-8.52,11.47-22.54,16.57-35.22,12.85-5.81-1.7-10.16-5.47-14.25-9.7-6.57-6.77-12.23-14.46-21.1-18.84a8.69,8.69,0,0,0-4.15-1c-3.45,0-6.9,1.09-10.33-.18.26-3.92,3-7.36,2.17-11.48,1.39.52,2.79,1.06,4.19,1.56,12.58,4.51,28.14-.62,34.71-11.41l-.07.09a1.51,1.51,0,0,0,1-2.09c.64.21.83,0,.54-.61l-.47.7a9.27,9.27,0,0,0-.92.14c-.58-5.84-5.83-11.13-13.33-12-17-1.87-32.68,1.75-45.88,13.39C734.57,700.49,733.72,701.83,732,702Z" transform="translate(-697.8 -42.99)"/><path class="cls-6" d="M1055,580.17c-1.36,17-10.63,29.46-23.26,39.67a107.82,107.82,0,0,1-51.39,22.67c-24.32,3.93-46.34-1.22-64.18-19-10.36-10.28-15.15-23.11-13.41-38a31.36,31.36,0,0,0,.07-3.5,421.84,421.84,0,0,1,84.72-7.6C1010.11,574.72,1032.64,576.23,1055,580.17Z" transform="translate(-697.8 -42.99)"/><path class="cls-3" d="M1112.75,764.9c1.33,2,2.91,1,4.34.25,7.32-3.77,13.18-9,16.29-16.83a7.18,7.18,0,0,1,2.49-3.48c2-1.48,3.31-3.86,2.69-6.11-1.31-4.8-.21-9.89-2-14.54-1-2.69,1.2-5.55-.26-7.79-3.63-5.55-3.53-11.76-4.6-17.93-1.75-10.07-12.38-13.43-21.06-7.35-2.86,2-5.43,4.42-8.34,6.33-1.53,1-3.79,2.54-5.12-.15-1.21-2.44.35-3.85,2.6-5,9.44-4.74,13.67-14.1,10.8-23.61-1.41-4.66-4.57-8-9-10.93a39.1,39.1,0,0,1,12.42-5.25,74.45,74.45,0,0,1,78.51,27.69c14.63,19.9,10.7,50.86-8.39,67.5-14.62,12.76-31.83,20.44-50.11,26a312.34,312.34,0,0,1-32.3,8.48c-1.79.34-3.48,1.75-4.54-1.44-.64-1.94-2.63-.22-3.86.29-5.82,2.41-11.41,5.4-17.66,6.64.19-.46.25-1.15.58-1.32,9.78-5.06,17.91-12.58,27.27-18.2C1106.24,766.56,1108.88,763.66,1112.75,764.9Z" transform="translate(-697.8 -42.99)"/><path class="cls-4" d="M905.76,561A84.83,84.83,0,0,1,926,532.39c12.94-12.13,28-20.63,45.68-23.89,20.26-3.75,39.94-1.77,58.77,6.83,9.53,4.35,13.83,13.59,19.18,21.66,5.15,7.79,9.12,16.2,9.09,25.91-11.52-1.46-23-3.18-34.58-4.32a513.11,513.11,0,0,0-84.71-1.07C928.19,558.27,917,559.8,905.76,561Z" transform="translate(-697.8 -42.99)"/><path class="cls-4" d="M1112.75,764.9c-3.87-1.24-6.51,1.66-9.2,3.28-9.36,5.62-17.49,13.14-27.27,18.2-.33.17-.39.86-.58,1.32a64.12,64.12,0,0,1-43.94-.27c-.37-1.83-1.88-2.61-3.19-3.64a30.72,30.72,0,0,1-5.77-41.89c3.8-.15,7.51-1.64,11.35-.89A48.11,48.11,0,0,1,1058,752.59c6.52,5.91,12.91,12.59,23.12,8,2.47.58,3.13-1,3.72-2.92,2.09-6.66.35-12.4-4.11-17.49s-10-8-15.94-10.71c-.86-1.94-2.74-2.85-4.29-4-15.26-11.21-13-37.2,5.28-42.51-.1,1.53,1,2.34,1.89,3.35,8.74,10.34,19,18.87,30.07,26.66,12.12,8.55,22.4,18.68,23.33,35.33,2.26-3.66,1.5-7.23,1.73-10.65,2.35.8,4.66,1.57,7.24.9,1.46-.37,3.5-2.51,4.4.51.81,2.75-1,4.37-3.34,5.28-1.75.68-2.66.88-3.54,3.45C1125,755.2,1120.22,761.4,1112.75,764.9Z" transform="translate(-697.8 -42.99)"/><path class="cls-4" d="M818.74,567.05c-3.61-.31-6.58-1.92-9.69-4.83l3.8-2.6c-8.14,1.52-15.91,5.19-24.5.11,7.91-4.23,15.4-8,22.28-14.32-3.8-.24-5.93,1.6-8.26,2.71-4.89,2.34-9.14,6-14.74,6.85-4.9.24-7.66-2.25-8.69-6.87-.28-1.26-.06-2.68-1.37-3.53,4.21-9.85,12.81-9.61,21.4-9.2,2.23.11,4.44.67,7.6,1.18-2.75-4.56-6.32-5.44-10.08-5.58s-7.59.15-11.38.25c-6.7-3.19-11.18-7.69-9.41-15.89,6.41-5.06,13.88-4.83,21.4-4.21a62,62,0,0,1,6.89,1.06c1,.21,2.55.18,2.48,1.82-.05,1.11-.89,2.46.74,2.92s2.3-1,3.06-2.06a23.51,23.51,0,0,0,4.45-12c.08-.85.64-2.27-.64-2.5-.65-.12-1.53,1-2.3,1.5.12-3.13-1.63-5.28-3.78-7.23-2.8-2.53-6.37-3.46-9.79-4.73-7.28-2.72-10.3-6.58-10.46-13.35,7.76-5.89,16.5-6.16,25.49-4.17a54.87,54.87,0,0,1,25.49,13.73c.15,7.81-3,14.86-5.19,22.1-2.08,6.8-2.67,13.62-.82,20.52,1,3.64,2.51,2.37,4,.24a30.62,30.62,0,0,0,1.23,5.27c.58,1.34.69-.3,1.08-.44,1.22.82.38,3.06,2.55,3.48,2-7.83,2.7-16.22,8.93-22.33l1.44-1.11a10.13,10.13,0,0,1,.81,1.74c.32,1.2-.23,3.08,1.59,3.16s1.7-1.89,1.89-3A113.58,113.58,0,0,0,857.75,504c.74-11.22,2.11-22.08,13-28.65a6.59,6.59,0,0,1,4,1.57c1,4,2.61,8,2.88,12,1.59,23.87-6.87,43.11-27,56.68a5.69,5.69,0,0,0-3,5.22c0,6-3.68,9.82-8.94,11.92A28.29,28.29,0,0,1,826.62,565C823.82,564.8,821,564.88,818.74,567.05Z" transform="translate(-697.8 -42.99)"/><path class="cls-6" d="M898.47,272.94c-6.28,16.48-15.09,31.69-23.64,47-12,21.86-18.92,44.94-17.06,70.17a125.79,125.79,0,0,0,4.92,26.37c.4,1.38,2.14,2.92.21,4.48-11.51-18-17.79-37.43-16.16-59,.82-10.79,4.49-20.74,9.19-30.34a89.87,89.87,0,0,1,6.21-11.37C877.92,297.12,885.25,271,891,243.92c14.9-70.39,56-118.31,124.3-142.32,2.18-.77,4.48-1.19,6.73-1.77-8.54,5.77-17.84,10.27-26.37,16.09-21.76,14.83-41.11,32.17-56.73,53.46-1.49,2-3.95,3.82-3.06,7L935,177c-.73-.13-1.11.28-1.34.9q-2.45,4-4.9,8c-5,7.68-8,16.29-10.81,24.88-4.21,12.7-8,25.53-11.94,38.3Q902.24,261,898.47,272.94Z" transform="translate(-697.8 -42.99)"/><path class="cls-4" d="M1175.93,552.58c-.25,3.45,2.84,4.66,4.66,6.6,9.31,10,16.42,21.06,19.62,34.52a46.23,46.23,0,0,1-.41,23.42c-.53,1.91-1,3.89-3.11,4.82l-1.33-2.66c-2.72,11.05-9,17.82-20.57,18.48-2.68-4.28-6.13-8.28-5.09-13.92,2.22-2,4.57-3.79,6.64-5.9,3.06-3.14,4.49-6.88,2.94-12.2-1.52,9-6.93,13.68-14.53,16.2-3.91-2.22-5.56-6.6-8.91-9.35,5.66-4,11.32-7.91,13.84-15-9,6.94-17.51,14.94-30.08,14.09-6.07-7.4-4.59-15.87,3.55-21.06,1.9-1.21,4.49-1.46,5.59-3.84l-.07.1,3-.79,10.73-.39c2.21.26,2.47-1.07,2.22-2.76-.81-5.35-9.39-12.68-14-12-2.24-3.25-4.8-6.32-6.66-9.77-4.49-8.34-9.9-16.69-3.26-26.45l0,.1c1.33-.24,2.84.37,4-.85,5.78-.62,10.22,2.3,14.42,5.65a66.92,66.92,0,0,1,10.8,11.69c1,1.33,1.89,2.18,2.05-.44l1.2-.27Z" transform="translate(-697.8 -42.99)"/><path class="cls-3" d="M818.74,567.05c2.24-2.17,5.08-2.25,7.88-2.09a28.29,28.29,0,0,0,12.14-2.22c5.26-2.1,8.93-5.87,8.94-11.92a5.69,5.69,0,0,1,3-5.22c20.13-13.57,28.59-32.81,27-56.68-.27-4.05-1.88-8-2.88-12,4,1.29,6.12,4.12,7.11,8.15,4.34,17.65.74,33.87-8.55,49.12-1.07,1.76-2.22,3.47-4,6.21,4.27-1.81,6.15-4.53,8.13-7a45.79,45.79,0,0,0,9-19.22c.5-2.29,1-3.53,3.72-3.26a70.4,70.4,0,0,0,25.13-2.4c.17.18.35.35.53.52-13.11,15.82-23,33.34-28.18,53.35a4.56,4.56,0,0,1-3.75,3.5,53.35,53.35,0,0,0-7.13,2.18,4.33,4.33,0,0,0-2.76,5.66c.43,1.6,1.07,3.16,1.44,4.77.9,3.93.6,8.35-2.2,10.75-2,1.69-5.43-1.16-7.94-2.56-7.57-4.26-14.31-9.68-20.84-15.39-2.27-2-2.29-3.14.46-4.65a12,12,0,0,0,5.53-5.36C840.43,566.62,830.2,570.27,818.74,567.05Z" transform="translate(-697.8 -42.99)"/><path class="cls-6" d="M1056.74,568.13l-1,10.65c-14.6-2.29-29.15-4.88-43.9-6.25a418.06,418.06,0,0,0-82.27.89c-8.26.86-16.54,1.69-24.81,2.54-.28-3.18,1.47-5.87,2.08-8.84C956.83,559.31,1006.82,559.13,1056.74,568.13Z" transform="translate(-697.8 -42.99)"/><path class="cls-4" d="M732,702c1.68-.13,2.53-1.47,3.64-2.44,13.2-11.64,28.83-15.26,45.88-13.39,7.5.82,12.75,6.11,13.33,12-.07.62-1,1.16-.16,1.86l.07-.09c-1.24-.67-1.76.48-2.44,1-7.79,6.34-16.65,8.46-26.56,7.26-5.58-.68-10.56-3.19-16.43-5.17,1.32,3.89,4.61,4.63,6.53,6.73.83,4.12-1.91,7.56-2.17,11.48a22.62,22.62,0,0,1-19.37-9.35A11.5,11.5,0,0,1,732,702Z" transform="translate(-697.8 -42.99)"/><path class="cls-3" d="M1081.13,760.62c-10.21,4.56-16.6-2.12-23.12-8A48.11,48.11,0,0,0,1034.15,741c-3.84-.75-7.55.74-11.35.89,1.47-4.5,6.28-7.1,6.89-12.09l0,0c.84.14,1.11-.29,1.06-1l0,.06c.8.06,1.09-.51,1.36-1.1,1.43-4.16,5.61-6.36,7.17-10.78,2.47,4.4,3,9.51,8.23,12.65-.81-6.17-3.72-11.12-2.84-16.62,4.07,5.91,7.92,12.06,15.16,14.7,0,2.19,2.06,2.62,3.35,3.49C1073.6,738.29,1081.47,746.92,1081.13,760.62Z" transform="translate(-697.8 -42.99)"/><path class="cls-6" d="M893.82,584c-.2,7.3-2.71,14.23-3.29,21.53-1.23,15.6-1.5,31.07,1.74,46.47,2.68,12.74,6.68,25,13.53,36.12a13.48,13.48,0,0,1,1,2.78l0,0c-6.61-4.21-10.55-10.73-14.47-17.15a120.29,120.29,0,0,1-16.15-44.58c-.81-5.22-.49-10.6-.69-15.91.27-5.62,2.07-10.95,3-16.43C880,587.9,885.17,584.06,893.82,584Z" transform="translate(-697.8 -42.99)"/><path class="cls-3" d="M1117.63,555.58c4.84,0,10.38,3.57,15.8,7a5.29,5.29,0,0,1,2.31,6.5,59.82,59.82,0,0,0-3,17.11c-.15,2.89-1.16,4.67-4.33,3.37-5.67-2.34-11.51-4.4-16.52-8.08-4.3-3.16-7.45-7.13-8.07-12.64C1102.94,561.12,1107.84,555.64,1117.63,555.58Z" transform="translate(-697.8 -42.99)"/><path class="cls-3" d="M1122.81,737.69c-.23,3.42.53,7-1.73,10.65-.93-16.65-11.21-26.78-23.33-35.33-11.06-7.79-21.33-16.32-30.07-26.66-.85-1-2-1.82-1.89-3.35a2.76,2.76,0,0,0,2.33-2.15,15.42,15.42,0,0,0,7.43,8.94c.4,1.12.89,2.34,2.34,1.88,1.22-.4.87-1.65.6-2.52a25.45,25.45,0,0,1-.63-10.2c3.33,5.79,6.68,11.56,14,13,.16,1.17,1.55,1.32,1.85,2.66,1.43,6.41,3.87,7.81,9.91,6.1a10.86,10.86,0,0,0,4.29,4.29c0,7,2.87,10.22,10.83,12-.28,3.12,2.66,5.49,2,8.7l-2.83-.4c.48,2.94,3.18,3.1,4.81,4.44v6.09c-.68.37-.93.75,0,1.11l-.08,0A1.27,1.27,0,0,1,1122.81,737.69Z" transform="translate(-697.8 -42.99)"/><path class="cls-4" d="M1091.89,692c-7.35-1.48-10.7-7.25-14-13,1.24-7,5.19-11.33,12.21-13.24,7.7-2.09,12.58,1.61,16.88,7.12C1109.41,682.74,1102.75,691.21,1091.89,692Z" transform="translate(-697.8 -42.99)"/><path class="cls-3" d="M877.49,270.94c-8.69-5.88-9.93-6.08-13.87-1.8,3.76-.8,6.23.49,7.85,3.35,1.13,2,3,3.87-1,5.39-2.47.93-3.39,3.48-1.58,6.55,1.3-1.24,2.3-3.62,4.19-2.25,1.54,1.12-.17,2.75-.57,4-.73,2.37-2,4.57-2.87,6.89-1.6,4.18-3.33,3-5.38.3-5.85-7.87-7-27-2-35.41,2.66-4.5,7.44-6.7,11.76-5.41,4.83,1.45,6.82,4.81,5.68,9.76C879.08,265.09,878.31,267.8,877.49,270.94Z" transform="translate(-697.8 -42.99)"/><path class="cls-6" d="M849.7,599.07c-4.52,3.34-9.23,6.44-13.51,10.06a76.07,76.07,0,0,0-19.42,24.48c-3.18,6.41-6.57,12.68-11.13,18.26-2.79,1.29-5.71,1.3-9.22,1.12,7.33-20.23,19.23-36.25,37.52-47.15C838.86,602.92,843.67,599.51,849.7,599.07Z" transform="translate(-697.8 -42.99)"/><path class="cls-6" d="M924.79,507.9c.21,2.15-1.08,3.78-2,5.54-7.06,13.75-14,27.55-19.42,42.08-.74,2-1.26,4.11-1.88,6.17L892.33,564C898.94,542.17,909.14,523.49,924.79,507.9Z" transform="translate(-697.8 -42.99)"/><path class="cls-6" d="M1029.69,729.81c-.61,5-5.42,7.59-6.89,12.09a30.72,30.72,0,0,0,5.77,41.89c1.31,1,2.82,1.81,3.19,3.64-8.45-3.19-15.78-7.82-20.18-16.08-4.65-8.71-4.45-17.26,1.51-25.28A75.1,75.1,0,0,1,1029.69,729.81Z" transform="translate(-697.8 -42.99)"/><path class="cls-6" d="M1068.12,680.85a2.76,2.76,0,0,1-2.33,2.15c-18.25,5.31-20.54,31.3-5.28,42.51,1.55,1.14,3.43,2,4.29,4l-5-1.78c-7.24-2.64-11.09-8.79-15.16-14.7l0,0a4.73,4.73,0,0,0-.61-4.16c.5-13.33,5.19-24.46,17-31.59C1067.11,673.59,1067.71,674,1068.12,680.85Z" transform="translate(-697.8 -42.99)"/><path class="cls-3" d="M836.69,529c-1.46,2.13-3,3.4-4-.24-1.85-6.9-1.26-13.72.82-20.52,2.21-7.24,5.34-14.29,5.19-22.1,3.27,2.07,5.85,4.93,8.43,7.73s2.88,7.29.37,9.42C839.42,510.17,836.72,518.9,836.69,529Z" transform="translate(-697.8 -42.99)"/><path class="cls-4" d="M1107.94,705a10.86,10.86,0,0,1-4.29-4.29c3.36-2.7,6.54-5.68,10.54-7.41,5.38-2.34,10.46-.46,12.48,4.43,2.19,5.29-.35,11.78-5.55,13.68-4,1.48-7.45.51-10.1-3.05C1110.12,707.2,1110.27,704.94,1107.94,705Z" transform="translate(-697.8 -42.99)"/><path class="cls-6" d="M1140.7,534.81c-6.64,9.76-1.23,18.11,3.26,26.45,1.86,3.45,4.42,6.52,6.66,9.77.18,2.91-.68,4.83-4.11,4.24-2.21-.38-2.93,1.24-3.28,2.79a42.52,42.52,0,0,0-.51,5.78l-4.81,2c-.85-5.27,1.22-10,1-14.93,1.78-1.29,3.22,2.58,4.76.32s-.89-3.59-1.85-5.11c-3.55-5.61-7.55-11-9.23-17.55C1130.7,541.12,1133.14,536.94,1140.7,534.81Z" transform="translate(-697.8 -42.99)"/><path class="cls-6" d="M870.76,475.33c-10.9,6.57-12.27,17.43-13,28.65a113.58,113.58,0,0,1-1.54,11.74c-.19,1.14-.13,3.1-1.89,3s-1.27-2-1.59-3.16a10.13,10.13,0,0,0-.81-1.74c-1.09-9.65-.54-19.16,3-28.3C858,477.46,862.78,474.49,870.76,475.33Z" transform="translate(-697.8 -42.99)"/><path class="cls-6" d="M755.49,667.93a5.67,5.67,0,0,0,.11.84c-9.76-.24-17.24-9-15.78-21.14C741,637.46,749,630.86,758.62,632c-2.37,1.93-5.79,2.6-7.07,5.85-4.2,2.89-5.66,7.12-5.88,12C745.31,657.86,750.28,663,755.49,667.93Z" transform="translate(-697.8 -42.99)"/><path class="cls-6" d="M1107,672.83c-4.3-5.51-9.18-9.21-16.88-7.12-7,1.91-11,6.21-12.21,13.24a25.45,25.45,0,0,0,.63,10.2c.27.87.62,2.12-.6,2.52-1.45.46-1.94-.76-2.34-1.88,1-1.92-.65-3.06-1.33-4.47-3.49-7.29-.53-15.72,7.4-20.92s17.47-4.56,22.61,1.66C1105.84,668,1107.08,670.16,1107,672.83Z" transform="translate(-697.8 -42.99)"/><path class="cls-3" d="M1142.72,583.84a42.52,42.52,0,0,1,.51-5.78c.35-1.55,1.07-3.17,3.28-2.79,3.43.59,4.29-1.33,4.11-4.24,4.59-.73,13.17,6.6,14,12,.25,1.69,0,3-2.22,2.76-4.86-4.46-10.71-2.73-16.3-2.58A19.07,19.07,0,0,0,1142.72,583.84Z" transform="translate(-697.8 -42.99)"/><path class="cls-3" d="M1155.84,612.59c3.35,2.75,5,7.13,8.91,9.35-7.68,3.9-15.24,3.6-22.63-.78-1.49-.88-2.87-2.13-2.49-4,.43-2.08,2.46-1.17,3.77-1.28C1147.77,615.56,1151.72,613.77,1155.84,612.59Z" transform="translate(-697.8 -42.99)"/><path class="cls-6" d="M1148.74,586.82c-1.1,2.38-3.69,2.63-5.59,3.84-8.14,5.19-9.62,13.66-3.55,21.06-4.25.69-7.3-1.71-10.08-4.27s-2.21-5.57-.3-8.17C1134.1,592.67,1140.2,587.78,1148.74,586.82Z" transform="translate(-697.8 -42.99)"/><path class="cls-6" d="M895.81,577.69c-3,.75-6.29,1.09-9.12,2.34-4.59,2-5.66-1.28-6.59-4.11-1.22-3.7,1.77-4.46,4.49-4.94,4.4-.79,8.82-1.46,13.22-2.18A23.74,23.74,0,0,1,895.81,577.69Z" transform="translate(-697.8 -42.99)"/><path class="cls-6" d="M787.75,476.56c.16,6.77,3.18,10.63,10.46,13.35,3.42,1.27,7,2.2,9.79,4.73,2.15,1.95,3.9,4.1,3.78,7.23a27.71,27.71,0,0,0-15.93-8.71c-3.32-.63-6-2.62-8.48-4.84C782.65,484.05,782.79,481,787.75,476.56Z" transform="translate(-697.8 -42.99)"/><path class="cls-4" d="M1120.8,725.7c.63-3.21-2.31-5.58-2-8.7a13.11,13.11,0,0,0,7.4-2.63c3.5-3,4.69-.27,5.54,2.34a7,7,0,0,1-1.77,7.38A7.56,7.56,0,0,1,1120.8,725.7Z" transform="translate(-697.8 -42.99)"/><path class="cls-6" d="M850.48,515c-6.23,6.11-6.9,14.5-8.93,22.33-2.17-.42-1.33-2.66-2.55-3.48-.56-9.62,3.1-17.56,9.62-24.63C850.26,511,849.43,513.3,850.48,515Z" transform="translate(-697.8 -42.99)"/><path class="cls-3" d="M1169.7,623.84c-1,5.64,2.41,9.64,5.09,13.92a18.85,18.85,0,0,1-7.33.15c-2.84-.31-5.91-1-6.41-4.28-.47-3.08,1.35-5.68,3.81-7.49A27.59,27.59,0,0,1,1169.7,623.84Z" transform="translate(-697.8 -42.99)"/><path class="cls-6" d="M775.7,515.33c-1.77,8.2,2.71,12.7,9.41,15.89H785a.85.85,0,0,0-1.29.36,18.15,18.15,0,0,1-3.9,0c-3.71-.82-7.79-1.61-9-5.86C769.59,521.17,772.09,517.88,775.7,515.33Z" transform="translate(-697.8 -42.99)"/><path class="cls-4" d="M734.57,673.29c-4.44,4.35-8,4.66-11.1,1.35s-2.75-7.55.81-11.07C726.16,668.28,729,672,734.57,673.29Z" transform="translate(-697.8 -42.99)"/><path class="cls-5" d="M895.81,577.69a23.74,23.74,0,0,0,2-8.89c2.88-1.16,6-1.32,9-1.68-.61,3-2.36,5.66-2.08,8.84Z" transform="translate(-697.8 -42.99)"/><path class="cls-4" d="M1122.78,735.83v-6.09a14.15,14.15,0,0,0,7.76-1.35c.8-.41,1.65-1.41,2.59-.27a3,3,0,0,1,.27,2.86c-1.58,5.52-6.19,5.63-10.69,5.91l.08.05c.09-.12.26-.26.24-.37A3.4,3.4,0,0,0,1122.78,735.83Z" transform="translate(-697.8 -42.99)"/><path class="cls-4" d="M733.71,653.14c1.19-1.1,1.93-1.16,2.1.76.42,4.86,2.28,9.26,4.71,13.55a6.35,6.35,0,0,1-4.82.09C732.77,663.05,731.88,658.28,733.71,653.14Z" transform="translate(-697.8 -42.99)"/><path class="cls-6" d="M733.71,653.14c-1.83,5.14-.94,9.91,2,14.4-3.4-.58-5.67-2.39-6.22-5.92A7.7,7.7,0,0,1,733.71,653.14Z" transform="translate(-697.8 -42.99)"/><path class="cls-6" d="M777.57,544.57c1.31.85,1.09,2.27,1.37,3.53,1,4.62,3.79,7.11,8.69,6.87-3.6,1.76-7,1.87-9.88-1.35C775.22,550.74,775.26,547.64,777.57,544.57Z" transform="translate(-697.8 -42.99)"/><path class="cls-4" d="M730.8,681.88c0,1.42.07,2.85.11,4.27-1.93,1-3.89,1.85-6.09.82q-1-3-2.06-6A19.75,19.75,0,0,0,730.8,681.88Z" transform="translate(-697.8 -42.99)"/><path class="cls-6" d="M722.76,681q1,3,2.06,6c-5.17-.85-6.19-4.4-6.48-9.89Z" transform="translate(-697.8 -42.99)"/><path class="cls-4" d="M727.72,692.38c0,1.14,0,2.27,0,3.41-2.79.57-5.58,1-7.45-1.85a3,3,0,0,1-.39-2.3c.37-1,1.29-.39,2.06-.23C723.88,691.8,725.81,692.07,727.72,692.38Z" transform="translate(-697.8 -42.99)"/><path class="cls-3" d="M1124.15,633.72c5.35-1.8,10.78-.67,16.23-.08l-12.31,1.14C1127.11,633.16,1125.43,634.18,1124.15,633.72Z" transform="translate(-697.8 -42.99)"/><path class="cls-6" d="M1144.63,534.06c-1.12,1.22-2.63.61-4,.85C1141.76,533.55,1143.24,534,1144.63,534.06Z" transform="translate(-697.8 -42.99)"/><path class="cls-3" d="M1044,708.84a4.73,4.73,0,0,1,.61,4.16C1043.42,711.76,1043.69,710.3,1044,708.84Z" transform="translate(-697.8 -42.99)"/><path class="cls-6" d="M1151.65,586.13l-3,.79C1149.47,585.92,1150.58,586.09,1151.65,586.13Z" transform="translate(-697.8 -42.99)"/><path class="cls-3" d="M913.44,719.76l-.67-.53c.23-.12.48-.37.69-.34s.49.3.73.47Z" transform="translate(-697.8 -42.99)"/><path class="cls-4" d="M783.71,531.59a.85.85,0,0,1,1.29-.36C784.7,531.81,784.23,531.79,783.71,531.59Z" transform="translate(-697.8 -42.99)"/><path class="cls-3" d="M915.34,508.5c.38-.38.78-.63,1.18-.07a5.7,5.7,0,0,1-.65.59C915.69,508.85,915.51,508.68,915.34,508.5Z" transform="translate(-697.8 -42.99)"/><path class="cls-3" d="M1173.1,550.69l-1.2.27c0-.26.09-.53.13-.79Z" transform="translate(-697.8 -42.99)"/><path class="cls-3" d="M1129.25,554.48c.33.4.6.83,0,1.18-.08.05-.44-.36-.67-.55A5.68,5.68,0,0,1,1129.25,554.48Z" transform="translate(-697.8 -42.99)"/><path class="cls-6" d="M925.77,507l-1,.94Z" transform="translate(-697.8 -42.99)"/><path class="cls-6" d="M806.22,506.52l.35,1.17-1.27-.07C805.6,507.25,805.91,506.88,806.22,506.52Z" transform="translate(-697.8 -42.99)"/><path class="cls-3" d="M1036.78,96.22q-.77.23-1.53.42Z" transform="translate(-697.8 -42.99)"/><path class="cls-6" d="M1032,727.77c-.27.59-.56,1.16-1.36,1.1C1030.69,728,1031.14,727.59,1032,727.77Z" transform="translate(-697.8 -42.99)"/><path class="cls-6" d="M1030.72,728.81c0,.75-.22,1.18-1.06,1C1029.62,729.1,1030,728.75,1030.72,728.81Z" transform="translate(-697.8 -42.99)"/><path class="cls-1" d="M957.58,326.9c8.69-19.38,27.38-25.5,47.65-17.54,9.18,3.6,16.62,9.6,23.27,16.73,8.23,11.62,14.8,24,17.65,38.13,3.77,18.67,5.13,37.33-2.54,55.4-7.87,18.57-21.21,31.28-41.32,35.61-21.63,4.66-41.52-10.77-42.45-33-.5-11.95,0-23.94-.07-35.92-.06-11-2-21.84-3.25-32.72C955.46,344.59,955.36,335.73,957.58,326.9Z" transform="translate(-697.8 -42.99)"/><path class="cls-1" d="M1073.76,254c11.67-1.54,22.33.83,31.71,8.17,3.12,3.41,6.41,6.7,8.45,10.91,1,2.1,2.53,2.22,4.49,1.91s3.73-1.39,5.85-.94c.31,2.51-1.81,3.81-2.56,5.71-.84.5-1.68,1-2.53,1.5-5.61,3.23-7.33,2.69-10.21-3.07a35.31,35.31,0,0,0-2.08-3.27c-.31-1.73-1.55-2.91-2.66-4.11-9.21-10.07-20.62-12.49-33.54-9.49-5.51,1.28-6.37.7-6.8-4.92-.19-2.48-.21-5-.31-7.45,1.72-.47,1.49,1.5,2.46,2C1067.14,255.59,1069.66,256.76,1073.76,254Z" transform="translate(-697.8 -42.99)"/><path class="cls-1" d="M1267.38,333.25c-6.26-4.78-11.58-4.58-18.31,0,4,2.38,6,5.82,4.36,10.26-1.29,3.57-4.24,5.14-8.12,5.25.17-1.58,1.33-1.82,2-2.49,1.75-1.71,3.32-3.49,1.7-6.07s-3.42-.85-5.14,0c-2.7,1.3-4.29.64-4.05-2.53.31-4,6.77-10.27,12.26-11.39,5-1,10-1.2,13.69,3.45A22.94,22.94,0,0,1,1267.38,333.25Z" transform="translate(-697.8 -42.99)"/><path class="cls-3" d="M1063.57,248.92c.1,2.48.12,5,.31,7.45.43,5.62,1.29,6.2,6.8,4.92,12.92-3,24.33-.58,33.54,9.49,1.11,1.2,2.35,2.38,2.66,4.11-8.89-.76-17.46-3.53-26.39-4.24-5.91-.47-11.77-1.66-17.74-1.71-7.88-.05-8.81-.31-9.54-7.62-.62-6.3-3.17-11.73-5.44-17.36h0C1053.55,243.94,1058.05,248.07,1063.57,248.92Z" transform="translate(-697.8 -42.99)"/><path class="cls-1" d="M920.71,259.93a7.35,7.35,0,0,1-4.87,1.49c-3-2.65-6.34-5-8.14-9.12,6.66.7,6.65.69,10.9-5,1.09-1.44,2.26-2.83,3.39-4.24,8-5.54,16.57-8.2,26.25-5.16A8.09,8.09,0,0,1,951,239c4.74,3.88,9.29,5.93,13.39-1.63-.19,4.83-2,8.35-3.47,11.94-1.09,2.57-3.12,1.9-5.08,1.42C943.44,239.44,927,243.72,920.71,259.93Z" transform="translate(-697.8 -42.99)"/><path class="cls-1" d="M1108.38,183.83c8.4-.15,20,10.88,20.18,18.66.08,3.2-1.08,4.61-4.1,2.46-6.1-4.32-12.18-8.68-18.15-13.17-1.74-1.31-3.2-3.2-2.37-5.61S1107,184,1108.38,183.83Z" transform="translate(-697.8 -42.99)"/><path class="cls-3" d="M920.71,259.93c6.31-16.21,22.73-20.49,35.12-9.16-4.19,2.72-9.17,2-13.75,3A201.48,201.48,0,0,0,920.71,259.93Z" transform="translate(-697.8 -42.99)"/><path class="cls-1" d="M993.67,262.83c6.39.18,12.31,2.86,17.47,7.37,1.14,1,2.33,2.13,1.53,3.83s-2.35,1.14-3.52.79c-7-2.1-14.34-2.57-21.51-3.85-2.19-.39-5.31-.39-5.41-3.3-.1-2.73,2.9-3.18,5-4.06C989.14,262.8,991.14,262.94,993.67,262.83Z" transform="translate(-697.8 -42.99)"/><path class="cls-3" d="M922,243.08c-1.13,1.41-2.3,2.8-3.39,4.24-4.25,5.67-4.24,5.68-10.9,5,1.8,4.1,5.14,6.47,8.14,9.12l-17.37,11.52Q902.25,261,906,249.12c1.27,2.08,2.17.71,3.38-.21C913.15,246.05,916.66,242.57,922,243.08Z" transform="translate(-697.8 -42.99)"/><path class="cls-1" d="M928.77,185.94l4.91-8c.81.24,1.17-.18,1.33-.9l.84-.67c3.1-1.91,6.14-3.93,9.32-5.69,2.19-1.22,4.59-2.09,7.18-1.4,3.28.86,4.14,3.46,1.91,6a7.92,7.92,0,0,1-3.18,2.34c-6.54,2.18-12.34,5.71-18.16,9.28C931.66,187.66,929.23,190.13,928.77,185.94Z" transform="translate(-697.8 -42.99)"/><path class="cls-3" d="M1073.76,254c-4.1,2.79-6.62,1.62-7.73-3.08A10.74,10.74,0,0,1,1073.76,254Z" transform="translate(-697.8 -42.99)"/><path class="cls-3" d="M1047.77,244l-.42-.23.4.24Z" transform="translate(-697.8 -42.99)"/><path class="cls-1" d="M1205.75,665c-.63-1.25-2.78-1-2.76-2.87,2.44-.61,1.59,2.08,2.74,2.79Z" transform="translate(-697.8 -42.99)"/><path class="cls-1" d="M1199.42,659.33c-.34-.63-.67-1.26-1-1.88a1,1,0,0,1,.45,0c.82.46.78,1.16.52,1.92Z" transform="translate(-697.8 -42.99)"/><path class="cls-6" d="M907.77,691.91l.75,1.07-.38.24-.36-1.31Z" transform="translate(-697.8 -42.99)"/><path class="cls-1" d="M1199.38,659.4c1-1.2,1.88.09,2.81.24l.1,0c-1.1,1.28-1.91-.2-2.86-.3Z" transform="translate(-697.8 -42.99)"/><path class="cls-1" d="M1205.73,664.92l.14.11-.12,0Z" transform="translate(-697.8 -42.99)"/><path class="cls-1" d="M1202.19,659.64v1.25l-.63-.42.71-.85Z" transform="translate(-697.8 -42.99)"/><path class="cls-6" d="M906.79,690.89l1,1h0l-1-1Z" transform="translate(-697.8 -42.99)"/><path class="cls-4" d="M755.49,667.93c-5.21-5-10.18-10.07-9.82-18.08.22-4.84,1.68-9.07,5.88-12,6.39.41,13.43,6.88,14.22,13.07C766.77,658.78,762.47,665.88,755.49,667.93Z" transform="translate(-697.8 -42.99)"/><path class="cls-1" d="M755.9,709.7c-1.92-2.1-5.21-2.84-6.53-6.73,5.87,2,10.85,4.49,16.43,5.17,9.91,1.2,18.77-.92,26.56-7.26.68-.55,1.2-1.7,2.44-1-6.57,10.79-22.13,15.92-34.71,11.41C758.69,710.76,757.29,710.22,755.9,709.7Z" transform="translate(-697.8 -42.99)"/><path class="cls-1" d="M794.73,699.94c-.89-.7.09-1.24.16-1.86a9.27,9.27,0,0,1,.92-.14l-.07-.09A1.51,1.51,0,0,1,794.73,699.94Z" transform="translate(-697.8 -42.99)"/><path class="cls-1" d="M795.81,697.94l.47-.7c.29.63.1.82-.54.61Z" transform="translate(-697.8 -42.99)"/><path class="cls-1" d="M1059.75,727.72l5,1.78c5.9,2.7,11.59,5.73,15.94,10.71s6.2,10.83,4.11,17.49c-.59,1.89-1.25,3.5-3.72,2.92.34-13.7-7.53-22.33-18-29.41C1061.81,730.34,1059.78,729.91,1059.75,727.72Z" transform="translate(-697.8 -42.99)"/><path class="cls-4" d="M935,177c-.16.72-.52,1.14-1.33.9C933.9,177.3,934.28,176.89,935,177Z" transform="translate(-697.8 -42.99)"/><path class="cls-1" d="M1122.78,735.83a3.4,3.4,0,0,1,.25.74c0,.11-.15.25-.24.37C1121.85,736.58,1122.1,736.2,1122.78,735.83Z" transform="translate(-697.8 -42.99)"/></svg>